{"accessors" : [{"bufferView" : 0, "byteOffset" : 0, "componentType" : 5123, "count" : 12015, "type" : "SCALAR", "max" : [12014], "min" : [0]}, {"bufferView" : 1, "byteOffset" : 0, "componentType" : 5126, "count" : 12015, "type" : "VEC3", "max" : [225.98699951171875, 201.94833374023438, 91.27143096923828], "min" : [-156.82093811035156, -138.5338897705078, -44.04506301879883], "name" : "POSITION"}, {"bufferView" : 1, "byteOffset" : 12, "componentType" : 5126, "count" : 12015, "type" : "VEC3", "max" : [0.6216283440589905, 0.9999380111694336, 0.9999954104423523], "min" : [-0.9079461097717285, -0.999908983707428, -0.9991575479507446], "name" : "NORMAL"}], "asset" : {"generator" : "Aspose.3D 22.7", "version" : "2.0"}, "buffers" : [{"uri" : "data:application/octet-stream;base64,", "byteLength" : 312400}], "bufferViews" : [{"buffer" : 0, "byteOffset" : 0, "byteLength" : 24032, "target" : 34963}, {"buffer" : 0, "byteOffset" : 24036, "byteLength" : 288360, "byteStride" : 24, "target" : 34962}], "meshes" : [{"primitives" : [{"attributes" : {"POSITION" : 1, "NORMAL" : 2}, "indices" : 0, "mode" : 4}], "name" : ""}], "nodes" : [{"mesh" : 0, "name" : ""}], "scene" : 0, "scenes" : [{"nodes" : [0]}]}