{"accessors" : [{"bufferView" : 0, "byteOffset" : 0, "componentType" : 5123, "count" : 9333, "type" : "SCALAR", "max" : [9332], "min" : [0]}, {"bufferView" : 1, "byteOffset" : 0, "componentType" : 5126, "count" : 9333, "type" : "VEC3", "max" : [177.07260131835938, 171.27096557617188, 84.9592056274414], "min" : [-165.43035888671875, -139.61094665527344, -50.39094161987305], "name" : "POSITION"}, {"bufferView" : 1, "byteOffset" : 12, "componentType" : 5126, "count" : 9333, "type" : "VEC3", "max" : [0.6101491451263428, 0.999737560749054, 1.0000040531158447], "min" : [-0.9102849364280701, -0.9996654987335205, -1.0000040531158447], "name" : "NORMAL"}], "asset" : {"generator" : "Aspose.3D 22.7", "version" : "2.0"}, "buffers" : [{"uri" : "data:application/octet-stream;base64,", "byteLength" : 242668}], "bufferViews" : [{"buffer" : 0, "byteOffset" : 0, "byteLength" : 18668, "target" : 34963}, {"buffer" : 0, "byteOffset" : 18672, "byteLength" : 223992, "byteStride" : 24, "target" : 34962}], "meshes" : [{"primitives" : [{"attributes" : {"POSITION" : 1, "NORMAL" : 2}, "indices" : 0, "mode" : 4}], "name" : ""}], "nodes" : [{"mesh" : 0, "name" : ""}], "scene" : 0, "scenes" : [{"nodes" : [0]}]}